<svg width="1200" height="800" viewBox="0 0 1200 800" xmlns="http://www.w3.org/2000/svg">
  <defs>
    <radialGradient id="bg" cx="50%" cy="35%" r="75%">
      <stop offset="0%" stop-color="#1D1F23" stop-opacity="0.4"/>
      <stop offset="55%" stop-color="#1D1F23"/>
      <stop offset="100%" stop-color="#000000"/>
    </radialGradient>
    <linearGradient id="floor" x1="0" y1="0" x2="0" y2="1">
      <stop offset="0%" stop-color="#3DA9FC" stop-opacity="0.18"/>
      <stop offset="100%" stop-color="#3DA9FC" stop-opacity="0"/>
    </linearGradient>
    <radialGradient id="glow" cx="50%" cy="55%" r="40%">
      <stop offset="0%" stop-color="#3DA9FC" stop-opacity="0.35"/>
      <stop offset="100%" stop-color="#3DA9FC" stop-opacity="0"/>
    </radialGradient>
  </defs>
  <rect width="1200" height="800" fill="url(#bg)"/>
  <rect y="560" width="1200" height="240" fill="url(#floor)"/>
  <circle cx="600" cy="430" r="320" fill="url(#glow)"/>
  
  <g transform="translate(180,300)" fill="none" stroke="#3DA9FC" stroke-width="6" stroke-linecap="round" stroke-linejoin="round" opacity="0.95">
    <ellipse cx="60" cy="160" rx="58" ry="58" stroke-opacity="0.9"/>
    <ellipse cx="560" cy="160" rx="58" ry="58" stroke-opacity="0.9"/>
    <path d="M60 160 L210 150 L300 60 L430 60 L470 100 L560 160" />
    <path d="M210 150 L260 95 L370 95" />
    <path d="M300 60 L330 20 L420 20" stroke-width="10" stroke="#3DA9FC"/>
    <path d="M470 100 L520 95 L560 130" fill="#3DA9FC" fill-opacity="0.15"/>
    <circle cx="60" cy="160" r="14" fill="#3DA9FC" fill-opacity="0.6"/>
    <circle cx="560" cy="160" r="14" fill="#3DA9FC" fill-opacity="0.6"/>
  </g>

  <g opacity="0.5">
    <line x1="0" y1="600" x2="1200" y2="600" stroke="#3DA9FC" stroke-opacity="0.15" stroke-width="2"/>
  </g>
</svg>