<svg width="1200" height="800" viewBox="0 0 1200 800" xmlns="http://www.w3.org/2000/svg">
  <defs>
    <radialGradient id="bg" cx="50%" cy="35%" r="75%">
      <stop offset="0%" stop-color="#16171A" stop-opacity="0.4"/>
      <stop offset="55%" stop-color="#16171A"/>
      <stop offset="100%" stop-color="#000000"/>
    </radialGradient>
    <linearGradient id="floor" x1="0" y1="0" x2="0" y2="1">
      <stop offset="0%" stop-color="#7ED321" stop-opacity="0.18"/>
      <stop offset="100%" stop-color="#7ED321" stop-opacity="0"/>
    </linearGradient>
    <radialGradient id="glow" cx="50%" cy="55%" r="40%">
      <stop offset="0%" stop-color="#7ED321" stop-opacity="0.35"/>
      <stop offset="100%" stop-color="#7ED321" stop-opacity="0"/>
    </radialGradient>
  </defs>
  <rect width="1200" height="800" fill="url(#bg)"/>
  <rect y="560" width="1200" height="240" fill="url(#floor)"/>
  <circle cx="600" cy="430" r="320" fill="url(#glow)"/>
  
  <g transform="translate(220,300)" fill="none" stroke="#7ED321" stroke-width="5" stroke-linecap="round" stroke-linejoin="round" opacity="0.95">
    <ellipse cx="50" cy="150" rx="50" ry="50"/>
    <ellipse cx="430" cy="150" rx="50" ry="50"/>
    <path d="M50 150 L190 150 L250 60 L330 60" />
    <path d="M190 150 L250 150 L430 150" />
    <path d="M250 60 L250 150" />
    <path d="M250 60 L300 30 L330 30" stroke-width="8" stroke="#7ED321"/>
    <circle cx="50" cy="150" r="10" fill="#7ED321" fill-opacity="0.6"/>
    <circle cx="430" cy="150" r="10" fill="#7ED321" fill-opacity="0.6"/>
  </g>

  <g opacity="0.5">
    <line x1="0" y1="600" x2="1200" y2="600" stroke="#7ED321" stroke-opacity="0.15" stroke-width="2"/>
  </g>
</svg>